<svg width="265" height="36" viewBox="0 0 265 36" fill="none" xmlns="http://www.w3.org/2000/svg">
<g clip-path="url(#clip0_55_1871)">
<mask id="mask0_55_1871" style="mask-type:luminance" maskUnits="userSpaceOnUse" x="0" y="0" width="77" height="36">
<path d="M76.3559 0H0V36H76.3559V0Z" fill="white"/>
</mask>
<g mask="url(#mask0_55_1871)">
<path d="M73.2653 17.7476C75.2443 15.7973 76.3559 13.1528 76.3559 10.3956C76.3559 7.63842 75.2443 4.99404 73.2653 3.04368C71.2848 1.09477 68.5996 0 65.7998 0C63.0001 0 60.3149 1.09477 58.3344 3.04368L52.0006 9.23479L45.714 3.04368C43.7326 1.09666 41.0477 0.00319745 38.2486 0.00319745C35.4495 0.00319745 32.7648 1.09666 30.7832 3.04368C28.8043 4.99404 27.6926 7.63842 27.6926 10.3956C27.6926 13.1528 28.8043 15.7973 30.7832 17.7476L47.4035 34.1309C48.6231 35.3279 50.2748 36 51.9967 36C53.7186 36 55.3703 35.3279 56.5899 34.1309L73.2653 17.7476Z" fill="url(#paint0_linear_55_1871)"/>
<path d="M45.5727 17.7476C47.5516 15.7973 48.6633 13.1528 48.6633 10.3956C48.6633 7.63842 47.5516 4.99404 45.5727 3.04368C43.5922 1.09477 40.907 0 38.1073 0C35.3074 0 32.6222 1.09477 30.6419 3.04368L24.3081 9.23479L18.0215 3.04368C16.041 1.09477 13.3558 0 10.556 0C7.7563 0 5.0711 1.09477 3.09065 3.04368C1.11166 4.99404 0 7.63842 0 10.3956C0 13.1528 1.11166 15.7973 3.09065 17.7476L19.7109 34.1309C20.9305 35.3279 22.5822 36 24.3041 36C26.026 36 27.6777 35.3279 28.8973 34.1309L45.5727 17.7476Z" fill="url(#paint1_linear_55_1871)"/>
<path d="M30.7281 17.7478L38.1543 25.0532L45.5725 17.7478C47.0518 16.3001 48.0614 14.4524 48.4733 12.439C48.885 10.4256 48.6803 8.33714 47.8853 6.43839C47.0903 4.53965 45.7406 2.91617 44.0075 1.77375C42.2744 0.63135 40.2358 0.0214844 38.1504 0.0214844C36.0648 0.0214844 34.0263 0.63135 32.2931 1.77375C30.56 2.91617 29.2105 4.53965 28.4153 6.43839C27.6203 8.33714 27.4158 10.4256 27.8275 12.439C28.2392 14.4524 29.2488 16.3001 30.7281 17.7478Z" fill="url(#paint2_linear_55_1871)"/>
</g>
<path d="M238.648 28.5679C239.271 28.4821 239.738 28.4104 240.051 28.3531V3.43675C240.051 2.72076 239.951 2.14797 239.753 1.71837C239.582 1.26014 239.328 0.902148 238.988 0.644391C238.648 0.386634 238.223 0.214796 237.714 0.128877C237.232 0.0429588 236.679 0 236.057 0C235.434 0 234.811 0.0572793 234.188 0.171839C233.592 0.257756 233.14 0.329355 232.829 0.386636V25.3031C232.829 26.0191 232.913 26.6062 233.083 27.0645C233.281 27.4941 233.55 27.8378 233.89 28.0955C234.23 28.3532 234.64 28.525 235.122 28.611C235.631 28.6969 236.199 28.7399 236.822 28.7399C237.445 28.7399 238.054 28.6825 238.648 28.5679Z" fill="white"/>
<path d="M238.648 28.5679C239.271 28.4821 239.738 28.4104 240.051 28.3531V3.43675C240.051 2.72076 239.951 2.14797 239.753 1.71837C239.582 1.26014 239.328 0.902148 238.988 0.644391C238.648 0.386634 238.223 0.214796 237.714 0.128877C237.232 0.0429588 236.679 0 236.057 0C235.434 0 234.811 0.0572793 234.188 0.171839C233.592 0.257756 233.14 0.329355 232.829 0.386636V25.3031C232.829 26.0191 232.913 26.6062 233.083 27.0645C233.281 27.4941 233.55 27.8378 233.89 28.0955C234.23 28.3532 234.64 28.525 235.122 28.611C235.631 28.6969 236.199 28.7399 236.822 28.7399C237.445 28.7399 238.054 28.6825 238.648 28.5679Z" fill="url(#paint3_linear_55_1871)"/>
<path fill-rule="evenodd" clip-rule="evenodd" d="M244.565 13.0597C243.999 14.4344 243.716 16.0668 243.716 17.9571C243.716 19.6754 243.971 21.222 244.48 22.5966C245.019 23.9427 245.784 25.1026 246.775 26.0763C247.794 27.0501 249.027 27.7947 250.47 28.3103C251.943 28.8258 253.601 29.0835 255.441 29.0835C257.14 29.0835 258.642 28.8687 259.944 28.4391C261.248 28.0382 262.31 27.5656 263.132 27.0215C264.377 26.2195 265 25.1455 265 23.7994V3.43675C265 2.72076 264.915 2.14797 264.746 1.71837C264.575 1.26014 264.32 0.902148 263.98 0.644391C263.641 0.386634 263.215 0.214796 262.706 0.128877C262.224 0.0429588 261.672 0 261.049 0C260.398 0 259.76 0.0572793 259.137 0.171839C258.514 0.257756 258.061 0.343674 257.778 0.429594V7.38902C257.438 7.24583 256.999 7.13127 256.46 7.04535C255.923 6.93078 255.37 6.87351 254.804 6.87351C253.246 6.87351 251.787 7.10262 250.428 7.56085C249.097 7.99045 247.922 8.66349 246.902 9.57994C245.911 10.4964 245.131 11.6563 244.565 13.0597ZM252.255 13.9189C253.077 13.031 254.252 12.5871 255.78 12.5871C256.574 12.5871 257.254 12.759 257.821 13.1026V22.5537C257.594 22.7541 257.269 22.9404 256.843 23.1122C256.447 23.2554 255.993 23.327 255.484 23.327C254.039 23.327 252.934 22.8831 252.169 21.9953C251.406 21.0788 251.022 19.7327 251.022 17.9571C251.022 16.1528 251.434 14.8067 252.255 13.9189Z" fill="white"/>
<path fill-rule="evenodd" clip-rule="evenodd" d="M244.565 13.0597C243.999 14.4344 243.716 16.0668 243.716 17.9571C243.716 19.6754 243.971 21.222 244.48 22.5966C245.019 23.9427 245.784 25.1026 246.775 26.0763C247.794 27.0501 249.027 27.7947 250.47 28.3103C251.943 28.8258 253.601 29.0835 255.441 29.0835C257.14 29.0835 258.642 28.8687 259.944 28.4391C261.248 28.0382 262.31 27.5656 263.132 27.0215C264.377 26.2195 265 25.1455 265 23.7994V3.43675C265 2.72076 264.915 2.14797 264.746 1.71837C264.575 1.26014 264.32 0.902148 263.98 0.644391C263.641 0.386634 263.215 0.214796 262.706 0.128877C262.224 0.0429588 261.672 0 261.049 0C260.398 0 259.76 0.0572793 259.137 0.171839C258.514 0.257756 258.061 0.343674 257.778 0.429594V7.38902C257.438 7.24583 256.999 7.13127 256.46 7.04535C255.923 6.93078 255.37 6.87351 254.804 6.87351C253.246 6.87351 251.787 7.10262 250.428 7.56085C249.097 7.99045 247.922 8.66349 246.902 9.57994C245.911 10.4964 245.131 11.6563 244.565 13.0597ZM252.255 13.9189C253.077 13.031 254.252 12.5871 255.78 12.5871C256.574 12.5871 257.254 12.759 257.821 13.1026V22.5537C257.594 22.7541 257.269 22.9404 256.843 23.1122C256.447 23.2554 255.993 23.327 255.484 23.327C254.039 23.327 252.934 22.8831 252.169 21.9953C251.406 21.0788 251.022 19.7327 251.022 17.9571C251.022 16.1528 251.434 14.8067 252.255 13.9189Z" fill="url(#paint4_linear_55_1871)"/>
<path d="M222.456 28.3532C222.173 28.4391 221.72 28.5251 221.097 28.611C220.502 28.697 219.878 28.7399 219.227 28.7399C218.604 28.7399 218.038 28.697 217.528 28.611C217.047 28.5251 216.635 28.3532 216.295 28.0955C215.956 27.8378 215.688 27.494 215.488 27.0644C215.319 26.6063 215.234 26.019 215.234 25.3031V12.4153C215.234 11.7566 215.348 11.1981 215.574 10.7399C215.828 10.253 216.183 9.82341 216.635 9.45111C217.089 9.07878 217.641 8.74943 218.293 8.46303C218.972 8.148 219.694 7.87592 220.459 7.64681C221.224 7.41768 222.018 7.24586 222.838 7.1313C223.66 6.9881 224.48 6.9165 225.302 6.9165C226.662 6.9165 227.738 7.18857 228.532 7.73273C229.324 8.24823 229.721 9.10743 229.721 10.3103C229.721 10.7112 229.664 11.1122 229.551 11.5132C229.438 11.8855 229.295 12.2291 229.126 12.5442C228.532 12.5442 227.922 12.5728 227.3 12.6301C226.677 12.6874 226.067 12.7733 225.473 12.8879C224.877 13.0024 224.311 13.1313 223.772 13.2745C223.263 13.389 222.825 13.5323 222.456 13.7041V28.3532Z" fill="white"/>
<path d="M222.456 28.3532C222.173 28.4391 221.72 28.5251 221.097 28.611C220.502 28.697 219.878 28.7399 219.227 28.7399C218.604 28.7399 218.038 28.697 217.528 28.611C217.047 28.5251 216.635 28.3532 216.295 28.0955C215.956 27.8378 215.688 27.494 215.488 27.0644C215.319 26.6063 215.234 26.019 215.234 25.3031V12.4153C215.234 11.7566 215.348 11.1981 215.574 10.7399C215.828 10.253 216.183 9.82341 216.635 9.45111C217.089 9.07878 217.641 8.74943 218.293 8.46303C218.972 8.148 219.694 7.87592 220.459 7.64681C221.224 7.41768 222.018 7.24586 222.838 7.1313C223.66 6.9881 224.48 6.9165 225.302 6.9165C226.662 6.9165 227.738 7.18857 228.532 7.73273C229.324 8.24823 229.721 9.10743 229.721 10.3103C229.721 10.7112 229.664 11.1122 229.551 11.5132C229.438 11.8855 229.295 12.2291 229.126 12.5442C228.532 12.5442 227.922 12.5728 227.3 12.6301C226.677 12.6874 226.067 12.7733 225.473 12.8879C224.877 13.0024 224.311 13.1313 223.772 13.2745C223.263 13.389 222.825 13.5323 222.456 13.7041V28.3532Z" fill="url(#paint5_linear_55_1871)"/>
<path fill-rule="evenodd" clip-rule="evenodd" d="M210.903 22.7256C211.442 21.3222 211.711 19.7327 211.711 17.9571C211.711 16.296 211.442 14.7781 210.903 13.4034C210.365 12.0287 209.6 10.8688 208.609 9.92367C207.646 8.94991 206.484 8.20528 205.125 7.68977C203.765 7.14562 202.25 6.87354 200.579 6.87354C198.909 6.87354 197.394 7.1313 196.034 7.64682C194.675 8.16232 193.499 8.90695 192.507 9.88071C191.544 10.8258 190.794 11.9857 190.256 13.3604C189.717 14.7351 189.448 16.2674 189.448 17.9571C189.448 19.6754 189.717 21.222 190.256 22.5966C190.794 23.9714 191.544 25.1456 192.507 26.1194C193.499 27.0645 194.675 27.7947 196.034 28.3103C197.394 28.8258 198.909 29.0835 200.579 29.0835C202.25 29.0835 203.765 28.8401 205.125 28.3533C206.484 27.8664 207.646 27.1503 208.609 26.2053C209.6 25.2602 210.365 24.1002 210.903 22.7256ZM197.817 21.9953C197.166 21.0501 196.841 19.704 196.841 17.9571C196.841 16.2387 197.166 14.9213 197.817 14.0048C198.47 13.0597 199.389 12.5871 200.579 12.5871C201.768 12.5871 202.689 13.0597 203.34 14.0048C203.993 14.9213 204.318 16.2387 204.318 17.9571C204.318 19.6754 203.993 21.0072 203.34 21.9524C202.717 22.8974 201.812 23.37 200.621 23.37C199.433 23.37 198.498 22.9118 197.817 21.9953Z" fill="white"/>
<path fill-rule="evenodd" clip-rule="evenodd" d="M210.903 22.7256C211.442 21.3222 211.711 19.7327 211.711 17.9571C211.711 16.296 211.442 14.7781 210.903 13.4034C210.365 12.0287 209.6 10.8688 208.609 9.92367C207.646 8.94991 206.484 8.20528 205.125 7.68977C203.765 7.14562 202.25 6.87354 200.579 6.87354C198.909 6.87354 197.394 7.1313 196.034 7.64682C194.675 8.16232 193.499 8.90695 192.507 9.88071C191.544 10.8258 190.794 11.9857 190.256 13.3604C189.717 14.7351 189.448 16.2674 189.448 17.9571C189.448 19.6754 189.717 21.222 190.256 22.5966C190.794 23.9714 191.544 25.1456 192.507 26.1194C193.499 27.0645 194.675 27.7947 196.034 28.3103C197.394 28.8258 198.909 29.0835 200.579 29.0835C202.25 29.0835 203.765 28.8401 205.125 28.3533C206.484 27.8664 207.646 27.1503 208.609 26.2053C209.6 25.2602 210.365 24.1002 210.903 22.7256ZM197.817 21.9953C197.166 21.0501 196.841 19.704 196.841 17.9571C196.841 16.2387 197.166 14.9213 197.817 14.0048C198.47 13.0597 199.389 12.5871 200.579 12.5871C201.768 12.5871 202.689 13.0597 203.34 14.0048C203.993 14.9213 204.318 16.2387 204.318 17.9571C204.318 19.6754 203.993 21.0072 203.34 21.9524C202.717 22.8974 201.812 23.37 200.621 23.37C199.433 23.37 198.498 22.9118 197.817 21.9953Z" fill="url(#paint6_linear_55_1871)"/>
<path d="M168.503 27.7518C168.106 28.0955 167.568 28.3676 166.889 28.5681C166.209 28.7972 165.402 28.9118 164.466 28.9118C163.306 28.9118 162.3 28.7399 161.451 28.3962C160.6 28.0812 160.035 27.623 159.752 27.0215C159.44 26.3342 159.072 25.2459 158.647 23.7566C158.25 22.2674 157.853 20.6349 157.456 18.8592C157.06 17.0835 156.678 15.2793 156.31 13.4464C155.97 11.6134 155.7 9.9953 155.503 8.59196C155.899 8.19101 156.423 7.84733 157.075 7.56094C157.754 7.24591 158.491 7.08838 159.283 7.08838C160.276 7.08838 161.083 7.3175 161.705 7.77574C162.357 8.20532 162.753 8.96428 162.894 10.0526C163.179 12.2292 163.418 14.0335 163.617 15.4655C163.815 16.8689 163.971 18.0287 164.084 18.9452C164.227 19.833 164.325 20.5203 164.382 21.0072C164.466 21.4655 164.538 21.8378 164.593 22.1241H164.764C164.849 21.6659 164.99 21.0072 165.189 20.148C165.415 19.2602 165.67 18.2579 165.954 17.1408C166.237 16.0239 166.534 14.8211 166.845 13.5323C167.158 12.2149 167.469 10.9118 167.781 9.62299C168.347 9.30796 168.899 9.06452 169.437 8.89268C170.004 8.72084 170.697 8.63492 171.519 8.63492C172.51 8.63492 173.359 8.79244 174.068 9.10748C174.776 9.42251 175.229 9.90938 175.427 10.5681C175.767 11.8282 176.093 13.0597 176.405 14.2626C176.716 15.4368 176.999 16.5395 177.255 17.5704C177.51 18.5729 177.736 19.475 177.935 20.2769C178.132 21.0501 178.275 21.6659 178.358 22.1241H178.571C178.882 19.919 179.18 17.6277 179.463 15.2507C179.775 12.8736 180.058 10.4535 180.314 7.99054C180.823 7.67549 181.362 7.44638 181.928 7.30318C182.494 7.15999 183.061 7.08838 183.627 7.08838C184.618 7.08838 185.44 7.30318 186.091 7.73278C186.743 8.16236 187.069 8.90699 187.069 9.96667C187.069 10.4249 186.997 11.1122 186.856 12.0287C186.714 12.9452 186.53 13.9762 186.304 15.1218C186.076 16.2674 185.808 17.4702 185.497 18.7304C185.213 19.9905 184.916 21.2078 184.605 22.382C184.322 23.5562 184.037 24.6158 183.754 25.5609C183.5 26.5061 183.274 27.2363 183.075 27.7518C182.678 28.0955 182.07 28.3676 181.248 28.5681C180.426 28.7972 179.549 28.9118 178.614 28.9118C176.235 28.9118 174.833 28.3103 174.407 27.1074L173.771 25.1742C173.517 24.3723 173.247 23.4989 172.964 22.5537C172.68 21.6087 172.412 20.6349 172.156 19.6325C171.901 18.6015 171.689 17.6135 171.519 16.6683C171.32 17.6708 171.081 18.7161 170.796 19.8044C170.513 20.864 170.217 21.9093 169.905 22.9404C169.621 23.9427 169.353 24.8736 169.097 25.7328C168.842 26.5634 168.645 27.2363 168.503 27.7518Z" fill="white"/>
<path d="M168.503 27.7518C168.106 28.0955 167.568 28.3676 166.889 28.5681C166.209 28.7972 165.402 28.9118 164.466 28.9118C163.306 28.9118 162.3 28.7399 161.451 28.3962C160.6 28.0812 160.035 27.623 159.752 27.0215C159.44 26.3342 159.072 25.2459 158.647 23.7566C158.25 22.2674 157.853 20.6349 157.456 18.8592C157.06 17.0835 156.678 15.2793 156.31 13.4464C155.97 11.6134 155.7 9.9953 155.503 8.59196C155.899 8.19101 156.423 7.84733 157.075 7.56094C157.754 7.24591 158.491 7.08838 159.283 7.08838C160.276 7.08838 161.083 7.3175 161.705 7.77574C162.357 8.20532 162.753 8.96428 162.894 10.0526C163.179 12.2292 163.418 14.0335 163.617 15.4655C163.815 16.8689 163.971 18.0287 164.084 18.9452C164.227 19.833 164.325 20.5203 164.382 21.0072C164.466 21.4655 164.538 21.8378 164.593 22.1241H164.764C164.849 21.6659 164.99 21.0072 165.189 20.148C165.415 19.2602 165.67 18.2579 165.954 17.1408C166.237 16.0239 166.534 14.8211 166.845 13.5323C167.158 12.2149 167.469 10.9118 167.781 9.62299C168.347 9.30796 168.899 9.06452 169.437 8.89268C170.004 8.72084 170.697 8.63492 171.519 8.63492C172.51 8.63492 173.359 8.79244 174.068 9.10748C174.776 9.42251 175.229 9.90938 175.427 10.5681C175.767 11.8282 176.093 13.0597 176.405 14.2626C176.716 15.4368 176.999 16.5395 177.255 17.5704C177.51 18.5729 177.736 19.475 177.935 20.2769C178.132 21.0501 178.275 21.6659 178.358 22.1241H178.571C178.882 19.919 179.18 17.6277 179.463 15.2507C179.775 12.8736 180.058 10.4535 180.314 7.99054C180.823 7.67549 181.362 7.44638 181.928 7.30318C182.494 7.15999 183.061 7.08838 183.627 7.08838C184.618 7.08838 185.44 7.30318 186.091 7.73278C186.743 8.16236 187.069 8.90699 187.069 9.96667C187.069 10.4249 186.997 11.1122 186.856 12.0287C186.714 12.9452 186.53 13.9762 186.304 15.1218C186.076 16.2674 185.808 17.4702 185.497 18.7304C185.213 19.9905 184.916 21.2078 184.605 22.382C184.322 23.5562 184.037 24.6158 183.754 25.5609C183.5 26.5061 183.274 27.2363 183.075 27.7518C182.678 28.0955 182.07 28.3676 181.248 28.5681C180.426 28.7972 179.549 28.9118 178.614 28.9118C176.235 28.9118 174.833 28.3103 174.407 27.1074L173.771 25.1742C173.517 24.3723 173.247 23.4989 172.964 22.5537C172.68 21.6087 172.412 20.6349 172.156 19.6325C171.901 18.6015 171.689 17.6135 171.519 16.6683C171.32 17.6708 171.081 18.7161 170.796 19.8044C170.513 20.864 170.217 21.9093 169.905 22.9404C169.621 23.9427 169.353 24.8736 169.097 25.7328C168.842 26.5634 168.645 27.2363 168.503 27.7518Z" fill="url(#paint7_linear_55_1871)"/>
<path fill-rule="evenodd" clip-rule="evenodd" d="M139.664 28.3962C141.108 28.8545 142.666 29.0835 144.337 29.0835C145.328 29.0835 146.39 28.9976 147.523 28.8258C148.656 28.6539 149.676 28.3247 150.583 27.8378C151.772 27.2076 152.366 26.2482 152.366 24.9594C152.366 24.3867 152.21 23.8425 151.899 23.327C151.588 22.8114 151.206 22.4105 150.752 22.1241C150.101 22.5251 149.251 22.8831 148.203 23.1981C147.183 23.4845 146.093 23.6277 144.932 23.6277C143.686 23.6277 142.581 23.3987 141.618 22.9404C140.655 22.4535 140.018 21.7376 139.706 20.7924L150.2 19.2029C151.162 19.0596 151.914 18.7304 152.451 18.2148C152.99 17.6993 153.258 16.9547 153.258 15.9809C153.258 14.6635 153.004 13.4463 152.493 12.3294C152.013 11.2125 151.318 10.253 150.412 9.45111C149.534 8.64921 148.472 8.01913 147.226 7.5609C146.008 7.10266 144.649 6.87354 143.147 6.87354C141.816 6.87354 140.513 7.08834 139.239 7.51794C137.964 7.91889 136.831 8.56329 135.84 9.45111C134.849 10.3103 134.042 11.4272 133.419 12.8019C132.824 14.148 132.526 15.7661 132.526 17.6564C132.526 19.5752 132.824 21.2507 133.419 22.6826C134.042 24.1146 134.877 25.3031 135.925 26.2482C137.001 27.1934 138.248 27.9093 139.664 28.3962ZM141.363 12.5442C141.873 12.3151 142.468 12.2005 143.147 12.2005C144.195 12.2005 144.988 12.4869 145.526 13.0597C146.065 13.6325 146.376 14.2053 146.461 14.7781L139.196 15.9809C139.225 15.5228 139.31 15.0788 139.451 14.6492C139.621 14.191 139.862 13.79 140.173 13.4463C140.485 13.074 140.882 12.7733 141.363 12.5442Z" fill="white"/>
<path fill-rule="evenodd" clip-rule="evenodd" d="M139.664 28.3962C141.108 28.8545 142.666 29.0835 144.337 29.0835C145.328 29.0835 146.39 28.9976 147.523 28.8258C148.656 28.6539 149.676 28.3247 150.583 27.8378C151.772 27.2076 152.366 26.2482 152.366 24.9594C152.366 24.3867 152.21 23.8425 151.899 23.327C151.588 22.8114 151.206 22.4105 150.752 22.1241C150.101 22.5251 149.251 22.8831 148.203 23.1981C147.183 23.4845 146.093 23.6277 144.932 23.6277C143.686 23.6277 142.581 23.3987 141.618 22.9404C140.655 22.4535 140.018 21.7376 139.706 20.7924L150.2 19.2029C151.162 19.0596 151.914 18.7304 152.451 18.2148C152.99 17.6993 153.258 16.9547 153.258 15.9809C153.258 14.6635 153.004 13.4463 152.493 12.3294C152.013 11.2125 151.318 10.253 150.412 9.45111C149.534 8.64921 148.472 8.01913 147.226 7.5609C146.008 7.10266 144.649 6.87354 143.147 6.87354C141.816 6.87354 140.513 7.08834 139.239 7.51794C137.964 7.91889 136.831 8.56329 135.84 9.45111C134.849 10.3103 134.042 11.4272 133.419 12.8019C132.824 14.148 132.526 15.7661 132.526 17.6564C132.526 19.5752 132.824 21.2507 133.419 22.6826C134.042 24.1146 134.877 25.3031 135.925 26.2482C137.001 27.1934 138.248 27.9093 139.664 28.3962ZM141.363 12.5442C141.873 12.3151 142.468 12.2005 143.147 12.2005C144.195 12.2005 144.988 12.4869 145.526 13.0597C146.065 13.6325 146.376 14.2053 146.461 14.7781L139.196 15.9809C139.225 15.5228 139.31 15.0788 139.451 14.6492C139.621 14.191 139.862 13.79 140.173 13.4463C140.485 13.074 140.882 12.7733 141.363 12.5442Z" fill="url(#paint8_linear_55_1871)"/>
<path d="M113.455 23.0693C113.144 22.3533 112.804 21.5514 112.436 20.6636C112.096 19.7757 111.727 18.759 111.331 17.6135C110.963 16.4678 110.566 15.1647 110.141 13.7041C109.745 12.2149 109.32 10.5108 108.867 8.59196C109.263 8.19101 109.787 7.84733 110.439 7.56094C111.119 7.24591 111.855 7.08838 112.648 7.08838C113.639 7.08838 114.461 7.30318 115.112 7.73278C115.764 8.13373 116.245 8.90699 116.557 10.0526L119.913 21.8664H120.083C120.423 20.8926 120.748 19.833 121.06 18.6875C121.4 17.5418 121.725 16.3676 122.037 15.1647C122.349 13.9333 122.632 12.7161 122.887 11.5132C123.17 10.2817 123.411 9.07883 123.609 7.90462C124.629 7.36046 125.747 7.08838 126.965 7.08838C127.957 7.08838 128.778 7.30318 129.429 7.73278C130.081 8.16236 130.406 8.90699 130.406 9.96667C130.406 10.7399 130.307 11.6421 130.109 12.6731C129.911 13.6755 129.642 14.7495 129.302 15.8951C128.99 17.0406 128.608 18.2292 128.155 19.4607C127.73 20.6636 127.277 21.852 126.795 23.0264C126.314 24.2006 125.818 25.3175 125.308 26.3772C124.799 27.4082 124.303 28.3389 123.821 29.1695C123.028 30.5729 122.292 31.7184 121.612 32.6063C120.932 33.4941 120.281 34.1814 119.658 34.6683C119.035 35.1839 118.412 35.5275 117.789 35.6993C117.165 35.8998 116.514 36 115.834 36C114.645 36 113.682 35.6421 112.945 34.926C112.209 34.2101 111.77 33.2793 111.628 32.1338C112.535 31.4177 113.441 30.6158 114.347 29.7279C115.254 28.8689 116.075 27.981 116.811 27.0645C116.33 26.9213 115.806 26.592 115.24 26.0765C114.701 25.5323 114.107 24.5298 113.455 23.0693Z" fill="white"/>
<path d="M113.455 23.0693C113.144 22.3533 112.804 21.5514 112.436 20.6636C112.096 19.7757 111.727 18.759 111.331 17.6135C110.963 16.4678 110.566 15.1647 110.141 13.7041C109.745 12.2149 109.32 10.5108 108.867 8.59196C109.263 8.19101 109.787 7.84733 110.439 7.56094C111.119 7.24591 111.855 7.08838 112.648 7.08838C113.639 7.08838 114.461 7.30318 115.112 7.73278C115.764 8.13373 116.245 8.90699 116.557 10.0526L119.913 21.8664H120.083C120.423 20.8926 120.748 19.833 121.06 18.6875C121.4 17.5418 121.725 16.3676 122.037 15.1647C122.349 13.9333 122.632 12.7161 122.887 11.5132C123.17 10.2817 123.411 9.07883 123.609 7.90462C124.629 7.36046 125.747 7.08838 126.965 7.08838C127.957 7.08838 128.778 7.30318 129.429 7.73278C130.081 8.16236 130.406 8.90699 130.406 9.96667C130.406 10.7399 130.307 11.6421 130.109 12.6731C129.911 13.6755 129.642 14.7495 129.302 15.8951C128.99 17.0406 128.608 18.2292 128.155 19.4607C127.73 20.6636 127.277 21.852 126.795 23.0264C126.314 24.2006 125.818 25.3175 125.308 26.3772C124.799 27.4082 124.303 28.3389 123.821 29.1695C123.028 30.5729 122.292 31.7184 121.612 32.6063C120.932 33.4941 120.281 34.1814 119.658 34.6683C119.035 35.1839 118.412 35.5275 117.789 35.6993C117.165 35.8998 116.514 36 115.834 36C114.645 36 113.682 35.6421 112.945 34.926C112.209 34.2101 111.77 33.2793 111.628 32.1338C112.535 31.4177 113.441 30.6158 114.347 29.7279C115.254 28.8689 116.075 27.981 116.811 27.0645C116.33 26.9213 115.806 26.592 115.24 26.0765C114.701 25.5323 114.107 24.5298 113.455 23.0693Z" fill="url(#paint9_linear_55_1871)"/>
<path d="M89.3955 3.43678C88.6875 4.15276 88.3334 5.12651 88.3334 6.35801V24.5298C88.3334 25.7613 88.6875 26.7351 89.3955 27.4511C90.1035 28.1672 91.0665 28.5251 92.2844 28.5251H104.69C105.454 28.5251 106.064 28.296 106.517 27.8378C106.998 27.3509 107.239 26.5632 107.239 25.475C107.239 24.9021 107.154 24.3581 106.984 23.8425C106.842 23.327 106.672 22.9118 106.474 22.5966H95.5557V18.086H103.373C104.138 18.086 104.746 17.8568 105.2 17.3987C105.653 16.9404 105.879 16.1672 105.879 15.0788C105.879 14.506 105.794 13.9762 105.624 13.4893C105.483 12.9738 105.313 12.5585 105.115 12.2435H95.5557V8.24824H104.52C105.285 8.24824 105.894 8.01911 106.347 7.56088C106.828 7.10264 107.069 6.32938 107.069 5.24107C107.069 4.66828 106.984 4.12412 106.814 3.60862C106.672 3.0931 106.502 2.67782 106.304 2.36279H92.2844C91.0665 2.36279 90.1035 2.72078 89.3955 3.43678Z" fill="white"/>
<path d="M89.3955 3.43678C88.6875 4.15276 88.3334 5.12651 88.3334 6.35801V24.5298C88.3334 25.7613 88.6875 26.7351 89.3955 27.4511C90.1035 28.1672 91.0665 28.5251 92.2844 28.5251H104.69C105.454 28.5251 106.064 28.296 106.517 27.8378C106.998 27.3509 107.239 26.5632 107.239 25.475C107.239 24.9021 107.154 24.3581 106.984 23.8425C106.842 23.327 106.672 22.9118 106.474 22.5966H95.5557V18.086H103.373C104.138 18.086 104.746 17.8568 105.2 17.3987C105.653 16.9404 105.879 16.1672 105.879 15.0788C105.879 14.506 105.794 13.9762 105.624 13.4893C105.483 12.9738 105.313 12.5585 105.115 12.2435H95.5557V8.24824H104.52C105.285 8.24824 105.894 8.01911 106.347 7.56088C106.828 7.10264 107.069 6.32938 107.069 5.24107C107.069 4.66828 106.984 4.12412 106.814 3.60862C106.672 3.0931 106.502 2.67782 106.304 2.36279H92.2844C91.0665 2.36279 90.1035 2.72078 89.3955 3.43678Z" fill="url(#paint10_linear_55_1871)"/>
</g>
<defs>
<linearGradient id="paint0_linear_55_1871" x1="51.9928" y1="35.4696" x2="51.9928" y2="-5.08215" gradientUnits="userSpaceOnUse">
<stop stop-color="#2AFADF"/>
<stop offset="0.99" stop-color="#4C83FF"/>
</linearGradient>
<linearGradient id="paint1_linear_55_1871" x1="24.3002" y1="35.4696" x2="24.3002" y2="-5.08215" gradientUnits="userSpaceOnUse">
<stop stop-color="#81FBB8"/>
<stop offset="0.99" stop-color="#28C76F"/>
</linearGradient>
<linearGradient id="paint2_linear_55_1871" x1="38.1465" y1="35.4698" x2="38.1465" y2="-5.08203" gradientUnits="userSpaceOnUse">
<stop stop-color="#B2C174"/>
<stop offset="0.48" stop-color="#2AA8B3"/>
<stop offset="1" stop-color="#305484"/>
</linearGradient>
<linearGradient id="paint3_linear_55_1871" x1="88.3332" y1="-5.4382e-06" x2="264.905" y2="36.4607" gradientUnits="userSpaceOnUse">
<stop stop-color="#007BFF"/>
<stop offset="1" stop-color="#17C283"/>
</linearGradient>
<linearGradient id="paint4_linear_55_1871" x1="88.3333" y1="2.83625e-06" x2="264.905" y2="36.4606" gradientUnits="userSpaceOnUse">
<stop stop-color="#007BFF"/>
<stop offset="1" stop-color="#17C283"/>
</linearGradient>
<linearGradient id="paint5_linear_55_1871" x1="88.3332" y1="-0.000101374" x2="264.905" y2="36.4606" gradientUnits="userSpaceOnUse">
<stop stop-color="#007BFF"/>
<stop offset="1" stop-color="#17C283"/>
</linearGradient>
<linearGradient id="paint6_linear_55_1871" x1="88.3333" y1="-0.000125399" x2="264.904" y2="36.4604" gradientUnits="userSpaceOnUse">
<stop stop-color="#007BFF"/>
<stop offset="1" stop-color="#17C283"/>
</linearGradient>
<linearGradient id="paint7_linear_55_1871" x1="88.3333" y1="4.00693e-05" x2="264.904" y2="36.4606" gradientUnits="userSpaceOnUse">
<stop stop-color="#007BFF"/>
<stop offset="1" stop-color="#17C283"/>
</linearGradient>
<linearGradient id="paint8_linear_55_1871" x1="88.3334" y1="-0.000122079" x2="264.904" y2="36.4604" gradientUnits="userSpaceOnUse">
<stop stop-color="#007BFF"/>
<stop offset="1" stop-color="#17C283"/>
</linearGradient>
<linearGradient id="paint9_linear_55_1871" x1="88.3333" y1="3.4742e-05" x2="264.905" y2="36.4606" gradientUnits="userSpaceOnUse">
<stop stop-color="#007BFF"/>
<stop offset="1" stop-color="#17C283"/>
</linearGradient>
<linearGradient id="paint10_linear_55_1871" x1="88.3334" y1="1.25923e-05" x2="264.905" y2="36.4606" gradientUnits="userSpaceOnUse">
<stop stop-color="#007BFF"/>
<stop offset="1" stop-color="#17C283"/>
</linearGradient>
<clipPath id="clip0_55_1871">
<rect width="265" height="36" fill="white"/>
</clipPath>
</defs>
</svg>
